# xmcd
#
# Track frame offsets:
#	183
#	13233
#	23320
#	37695
#	50845
#	61695
#	72445
#	86408
#	99720
#	110895
#	123183
#	133120
#	144820
#	158733
#	170520
#	183458
#	196233
#	208733
#
# Disc length: 2983
#
# Revision: 1
# Processed by: cddbd v1.5.1PL0 Copyright (c) Steve Scherf et al.
# Submitted via: dBpowerAMP V4.0
# Normalized: r0:DSETVAR1
#
DISCID=f30ba512
DTITLE=Various Artist - Blues Bros,18 R&B Classics
DYEAR=1989
DGENRE=Blues
TTITLE0=Muddy Waters - I Just Want To Make Love To You
TTITLE1=John Lee Hooker - Dimples
TTITLE2=Lowell Fulson - Reconsider Baby
TTITLE3=Howlin' Wolf - Evil
TTITLE4=Jimmy Reed - Baby What You Want Me To Do
TTITLE5=Bo Diddley - Mona
TTITLE6=Chuck Berry - Wee Wee Hours
TTITLE7=Elmore James - Dust My Broom
TTITLE8=Sonny Boy Williamson - Fattening Frogs For Snakes
TTITLE9=Little Milton - Grits Aint Groceries
TTITLE10=Buddy Guy - First Time I met the Blues
TTITLE11=Little Walter - My Babe
TTITLE12=Muddy Waters - I'm Ready
TTITLE13=John Lee Hooker - Boom Boom
TTITLE14=Lowell Fulson - Good I'm Glad You Reconsidered
TTITLE15=Jimmy Reed - The Big Boss Man
TTITLE16=Elmore James - The Sky Is Crying
TTITLE17=Howlin' Wolf - Goin Down Slow
EXTD=
EXTT0=
EXTT1=
EXTT2=
EXTT3=
EXTT4=
EXTT5=
EXTT6=
EXTT7=
EXTT8=
EXTT9=
EXTT10=
EXTT11=
EXTT12=
EXTT13=
EXTT14=
EXTT15=
EXTT16=
EXTT17=
PLAYORDER=
